<svg 
 xmlns="http://www.w3.org/2000/svg"
 xmlns:xlink="http://www.w3.org/1999/xlink"
 width="30px" height="29px">
<path fill-rule="evenodd"  opacity="0.502" fill="rgb(255, 255, 255)"
 d="M15.000,0.001 C15.000,0.001 19.944,9.114 19.944,9.114 C19.944,9.114 29.998,11.077 29.998,11.077 C29.998,11.077 22.999,18.673 22.999,18.673 C22.999,18.673 24.269,28.999 24.269,28.999 C24.269,28.999 15.000,24.580 15.000,24.580 C15.000,24.580 5.730,28.999 5.730,28.999 C5.730,28.999 7.001,18.673 7.001,18.673 C7.001,18.673 0.002,11.077 0.002,11.077 C0.002,11.077 10.056,9.114 10.056,9.114 C10.056,9.114 15.000,0.001 15.000,0.001 "/>
</svg>