<svg 
 xmlns="http://www.w3.org/2000/svg"
 xmlns:xlink="http://www.w3.org/1999/xlink"
 width="363px" height="167px">
<path fill-rule="evenodd"  fill="rgb(204, 175, 74)"
 d="M354.815,0.517 C354.815,0.517 355.185,2.483 355.185,2.483 C355.185,2.483 9.185,64.983 9.185,64.983 C9.185,64.983 8.815,63.017 8.815,63.017 C8.815,63.017 354.815,0.517 354.815,0.517 ZM0.808,64.981 C0.808,64.981 1.192,63.018 1.192,63.018 C1.192,63.018 362.192,165.018 362.192,165.018 C362.192,165.018 361.808,166.981 361.808,166.981 C361.808,166.981 0.808,64.981 0.808,64.981 ZM361.642,163.066 C361.642,163.066 362.358,164.933 362.358,164.933 M-52.000,60.000 "/>
</svg>